<svg width="667" height="452" viewBox="0 0 667 452" fill="none" xmlns="http://www.w3.org/2000/svg">
<path d="M654.188 185.705H575.176C568.872 185.705 563.72 190.853 563.72 197.152V231.78C563.72 237.567 568.456 242.299 574.248 242.299H576.264L572.456 258.35L596.361 242.299H654.86C661.164 242.299 666.317 237.151 666.317 230.852V197.823C666.317 191.141 660.844 185.705 654.188 185.705Z" fill="#88EEFB"/>
<path d="M656.3 214.456H573.928C572.808 214.456 571.88 213.529 571.88 212.41C571.88 211.291 572.808 210.364 573.928 210.364H656.3C657.42 210.364 658.349 211.291 658.349 212.41C658.349 213.529 657.42 214.456 656.3 214.456Z" fill="white"/>
<path d="M656.3 223.569H573.928C572.808 223.569 571.88 222.641 571.88 221.522C571.88 220.403 572.808 219.476 573.928 219.476H656.3C657.42 219.476 658.349 220.403 658.349 221.522C658.349 222.673 657.42 223.569 656.3 223.569Z" fill="white"/>
<path d="M656.3 232.713H573.928C572.808 232.713 571.88 231.786 571.88 230.667C571.88 229.548 572.808 228.62 573.928 228.62H656.3C657.42 228.62 658.349 229.548 658.349 230.667C658.349 231.786 657.42 232.713 656.3 232.713Z" fill="white"/>
<path d="M611.434 200.292H576.456C575.112 200.292 574.024 199.205 574.024 197.862C574.024 196.519 575.112 195.432 576.456 195.432H611.434C612.778 195.432 613.866 196.519 613.866 197.862C613.834 199.205 612.746 200.292 611.434 200.292Z" fill="white"/>
<path d="M641.484 200.292H620.427C619.37 200.292 618.506 199.429 618.506 198.373V197.35C618.506 196.295 619.37 195.432 620.427 195.432H641.484C642.54 195.432 643.404 196.295 643.404 197.35V198.373C643.404 199.429 642.54 200.292 641.484 200.292Z" fill="white"/>
<path d="M244.12 395.213H353.95C357.406 395.213 360.19 392.432 360.19 388.979V355.214C360.19 351.761 357.406 348.979 353.95 348.979H244.12C240.664 348.979 237.88 351.761 237.88 355.214V388.979C237.912 392.4 240.696 395.213 244.12 395.213Z" fill="white"/>
<path d="M419.169 23.3093V427.683C419.169 437.659 411.073 445.717 401.088 445.717H174.518C164.533 445.717 156.437 437.627 156.437 427.683V23.3093C156.437 13.3334 164.533 5.24402 174.518 5.24402H401.088C411.105 5.27599 419.169 13.3334 419.169 23.3093Z" fill="#C0D8FB"/>
<path d="M215.735 328.276H326.269C329.501 328.276 332.125 325.654 332.125 322.425V293.169C332.125 289.939 329.501 287.317 326.269 287.317H215.735C212.503 287.317 209.879 289.939 209.879 293.169V322.393C209.879 325.654 212.503 328.276 215.735 328.276Z" fill="#FCE29E"/>
<path d="M414.593 5.27588H160.34V174.61H414.593V5.27588Z" fill="#F0F6FF"/>
<path d="M319.901 27.274H255.802C246.298 27.274 238.617 19.6003 238.617 10.104H337.086C337.054 19.6003 329.374 27.274 319.901 27.274Z" fill="#2B478B"/>
<path d="M401.568 450.577H174.069C161.812 450.577 151.86 440.089 151.86 427.204V23.7887C151.86 10.9032 161.812 0.415771 174.069 0.415771H401.568C413.825 0.415771 423.777 10.9032 423.777 23.7887V427.204C423.777 440.089 413.825 450.577 401.568 450.577ZM174.069 10.1039C166.901 10.1039 161.076 16.2429 161.076 23.7887V427.204C161.076 434.749 166.901 440.888 174.069 440.888H401.568C408.736 440.888 414.561 434.749 414.561 427.204V23.7887C414.561 16.2429 408.736 10.1039 401.568 10.1039H174.069Z" fill="#2B478B"/>
<path d="M400.385 445.588H168.213C161.589 445.588 156.181 440.217 156.181 433.598V417.323H419.458V426.532C419.458 437.051 410.913 445.588 400.385 445.588Z" fill="#2B478B"/>
<path d="M440.771 226.344C450.691 224.234 461.028 227.239 468.388 234.21C471.62 237.279 475.173 241.148 478.437 245.72C486.533 257.007 471.044 268.198 473.092 272.003C475.141 275.84 479.941 278.845 477.829 286.839C475.749 294.832 461.956 305.192 457.476 305.639C411.937 310.308 392.192 285.24 407.393 271.715C422.594 258.19 416.418 238.59 428.77 230.98C432.61 228.614 436.803 227.207 440.771 226.344Z" fill="#233862"/>
<path d="M463.939 296.271C463.939 296.271 506.822 314.944 514.598 314.592C522.374 314.24 570.345 300.012 570.345 300.012L569.129 308.261C569.129 308.261 532.103 329.524 519.174 330.739C506.437 331.922 462.883 319.324 458.659 316.638C454.435 313.952 451.715 298.957 463.939 296.271Z" fill="#FDB888"/>
<path d="M469.123 316.671C465.347 319.292 460.643 321.435 454.723 322.809C432.514 327.925 424.001 309.189 420.801 296.303C423.841 294.577 426.689 294.193 428.321 294.001C429.922 293.809 431.618 293.681 433.026 293.617C435.522 291.699 439.234 283.897 440.066 271.747L441.122 272.035L458.627 276.831C458.627 276.831 457.827 282.394 457.443 287.638C457.155 291.763 457.091 295.696 457.859 296.655C459.235 296.943 460.035 297.134 460.035 297.134C460.035 297.134 460.035 297.134 460.035 297.166C460.259 297.518 465.347 305.863 469.123 316.671Z" fill="#FFB27D"/>
<path d="M458.595 276.799C458.595 276.799 457.795 282.362 457.411 287.606C447.49 286.615 442.882 277.182 441.09 272.003L458.595 276.799Z" fill="#ED985F"/>
<path d="M461.571 282.011C461.571 282.011 438.018 280.7 439.042 266.088C440.066 251.444 437.73 241.436 452.802 241.628C467.875 241.852 470.403 247.639 471.235 252.595C472.099 257.551 467.715 281.979 461.571 282.011Z" fill="#FFB27D"/>
<path d="M471.172 244.409C467.843 239.741 465.027 240.509 463.395 241.724C451.043 233.73 442.018 243.578 442.018 243.578C439.682 253.97 431.682 259.437 431.682 259.437C431.682 259.437 435.842 262.762 445.858 260.556C458.627 257.711 463.011 246.648 463.619 244.953C464.963 246.36 466.691 247.223 468.036 250.261C469.604 253.842 470.596 255.92 470.628 261.803C470.596 261.803 476.132 251.412 471.172 244.409Z" fill="#233862"/>
<path d="M414.081 364.503C411.969 353.632 405.024 310.244 411.969 296.271C414.465 291.251 424.225 290.803 434.946 291.251C438.274 293.393 450.979 301.547 456.227 300.524C456.291 300.524 456.387 300.492 456.515 300.46C458.979 299.852 459.907 298.125 457.859 296.623C457.859 296.623 463.171 296.111 469.764 297.358C473.476 298.062 483.524 303.241 483.524 303.241C483.524 303.241 478.468 312.386 471.012 315.519C472.292 326.87 470.404 331.858 458.627 358.045C448.674 380.171 459.971 400.122 459.971 400.122C459.971 400.122 401.408 447.156 401.088 423.207C400.832 405.174 416.801 378.38 414.081 364.503Z" fill="white"/>
<path d="M462.851 451.249C466.051 450.897 468.899 449.138 470.691 446.484C470.979 446.069 471.267 445.621 471.587 445.11C478.244 435.038 480.836 404.151 495.845 371.25C499.493 363.256 512.613 361.818 516.165 352.737C516.165 352.737 524.966 323.385 499.333 322.522C473.699 321.658 430.689 404.151 429.985 412.816C429.345 421.257 413.056 456.876 462.851 451.249Z" fill="#FDCD51"/>
<path d="M564.744 450.577H528.262C528.262 450.577 526.886 444.758 529.286 440.793C531.399 437.308 530.598 435.293 529.03 432.416C530.694 433.087 532.807 433.695 535.175 433.567C536.999 433.471 538.919 432.64 540.615 431.648C542.183 433.439 548.903 441.049 551.015 442.551C553.384 444.31 564.008 443.67 564.744 450.577Z" fill="#233862"/>
<path d="M516.999 331.059C519.207 347.525 527.783 399.451 542.92 424.806C547.784 432.991 530.631 437.564 530.535 437.532C528.231 436.924 524.391 433.247 522.631 431.681C510.342 420.618 485.413 389.283 485.413 364.184C485.413 351.938 485.189 328.533 494.118 322.586C499.59 318.909 516.135 324.536 516.999 331.059Z" fill="#FDCD51"/>
<path d="M441.09 450.577C441.09 450.577 442.434 448.691 444.802 445.142C447.618 440.889 450.723 432.544 454.467 421.833C458.435 410.578 463.107 396.765 468.995 382.345C470.82 377.9 472.74 373.392 474.788 368.916C478.436 360.922 488.484 362.009 492.069 352.961C492.069 352.961 506.021 321.594 480.388 320.699C454.755 319.836 406.048 404.631 403.232 412.848C400.16 421.865 385.183 459.21 441.09 450.577Z" fill="#FCE29E"/>
<path d="M537.959 450.577H501.477C501.477 450.577 500.101 444.758 502.501 440.793C504.613 437.308 503.813 435.293 502.245 432.416C503.909 433.087 506.021 433.695 508.389 433.567C510.213 433.471 512.134 432.64 513.83 431.648C515.398 433.439 522.118 441.049 524.23 442.551C526.598 444.31 537.223 443.67 537.959 450.577Z" fill="#2B478B"/>
<path d="M454.467 421.833C458.435 410.578 463.107 396.765 468.995 382.345C467.459 371.442 464.163 361.882 458.595 358.045C458.595 358.045 445.122 399.771 454.467 421.833Z" fill="#FFDB7D"/>
<path d="M495.717 329.908C497.925 346.374 500.997 399.483 516.134 424.806C520.998 432.991 503.846 437.564 503.75 437.532C501.445 436.924 497.605 433.247 495.845 431.681C483.557 420.618 458.627 389.283 458.627 364.184C458.627 351.938 473.028 329.524 481.924 323.577C487.397 319.9 494.821 323.353 495.717 329.908Z" fill="#FCE29E"/>
<path d="M574.696 278.813L537.319 274.848C536.231 274.72 535.207 275.36 534.823 276.383L521.446 311.49C520.87 313.025 521.958 314.688 523.59 314.752L560.68 316.255C561.672 316.287 562.6 315.711 563.016 314.784L576.681 282.17C577.289 280.636 576.296 278.973 574.696 278.813Z" fill="#233862"/>
<path d="M577.928 279.133L540.55 275.168C539.462 275.04 538.438 275.68 538.054 276.703L524.678 311.81C524.102 313.345 525.19 315.008 526.822 315.072L563.911 316.575C564.903 316.607 565.832 316.031 566.248 315.104L579.912 282.49C580.52 280.988 579.528 279.293 577.928 279.133Z" fill="#2B478B"/>
<path d="M557.223 295.536C557.671 294.289 557.031 293.266 555.783 293.266C554.534 293.266 553.126 294.289 552.678 295.536C552.23 296.783 552.87 297.806 554.118 297.806C555.367 297.806 556.775 296.783 557.223 295.536Z" fill="#EBF3FA"/>
<path d="M576.808 282.458C577.032 281.851 576.712 281.339 576.104 281.339C575.496 281.339 574.792 281.851 574.568 282.458C574.344 283.066 574.664 283.577 575.272 283.577C575.912 283.577 576.584 283.066 576.808 282.458Z" fill="#EBF3FA"/>
<path d="M420.801 296.271C420.801 296.271 472.58 315.327 480.356 314.944C485.38 314.688 527.206 300.012 527.206 300.012L530.951 307.11C530.951 307.11 490.277 333.233 479.076 333.105C456.995 332.849 419.713 319.292 415.521 316.638C411.329 313.984 408.577 298.957 420.801 296.271Z" fill="#FFB27D"/>
<path d="M527.206 300.012C527.206 300.012 530.95 294.257 534.695 294.065C538.439 293.905 544.871 296.623 547.079 297.038C549.287 297.454 555.56 299.5 553.703 302.57C551.847 305.639 543.175 306.311 539.431 305.639C535.687 304.968 530.95 307.142 530.95 307.142L527.206 300.012Z" fill="#FFB27D"/>
<path d="M533.671 294.257C533.671 294.257 539.623 291.539 541.319 291.027C543.015 290.516 542.663 291.027 542.183 292.658C541.671 294.257 538.631 295.791 538.631 296.303C538.631 296.815 533.671 294.257 533.671 294.257Z" fill="#FFB27D"/>
<path d="M574.089 296.943C574.089 296.943 570.344 291.027 569.128 290.772C565.384 290.036 565.384 294.96 566.184 298.126C567.048 301.515 569.928 304.744 570.696 304.456C571.496 304.201 574.953 300.076 574.089 296.943Z" fill="#FFB27D"/>
<path d="M574.217 298.126C574.217 298.126 575.401 304.776 569.096 308.229L570.953 303.657L574.217 298.126Z" fill="#FFB27D"/>
<path d="M465.988 273.601C465.988 273.601 463.748 272.706 457.507 273.218C457.507 273.218 457.827 275.648 462.468 275.903C465.06 276.031 465.988 273.601 465.988 273.601Z" fill="white"/>
<path d="M447.459 305.671C447.459 305.671 442.819 320.315 426.914 323.641C426.914 323.641 400.641 315.551 413.729 297.678C413.729 297.678 426.69 288.086 447.459 305.671Z" fill="white"/>
<path d="M344.701 308.772C344.701 316.413 347.933 323.288 353.085 328.148C357.854 332.624 364.254 335.374 371.326 335.374C371.902 335.374 372.478 335.342 373.022 335.31C379.679 334.894 385.695 332.017 390.143 327.572C390.719 326.997 391.295 326.389 391.807 325.75C392.639 324.759 393.407 323.703 394.079 322.584C396.543 318.556 397.951 313.824 397.951 308.772C397.951 301.418 394.975 294.767 390.143 289.971C385.311 285.175 378.687 282.169 371.326 282.169C363.966 282.169 357.309 285.143 352.509 289.971C347.709 294.799 344.701 301.45 344.701 308.772Z" fill="white"/>
<path d="M355.869 320.826C356.349 321.145 356.861 321.433 357.437 321.625C361.597 325.238 368.19 331.057 373.022 335.31C379.678 334.894 385.695 332.017 390.143 327.572C390.719 326.997 391.295 326.389 391.807 325.75C392.639 324.758 393.407 323.703 394.079 322.584C393.503 321.561 392.831 320.538 391.999 319.515C387.711 313.983 384.223 312.097 385.183 304.967C385.695 301.098 383.199 287.381 374.302 286.678C373.566 286.614 369.054 285.846 365.79 286.773C357.885 288.916 346.781 314.559 355.869 320.826Z" fill="#233862"/>
<path d="M365.086 319.291C365.054 319.291 368.799 321.562 371.743 320.954C374.527 320.379 377.375 316.606 377.311 316.606C376.159 316.318 375.103 315.007 375.583 308.164L375.039 308.228L366.11 309.411C366.11 309.411 366.142 312.193 365.982 314.815C365.886 317.021 365.598 319.1 365.086 319.291Z" fill="#FFB27D"/>
<path d="M366.142 309.444C366.142 309.444 366.174 312.225 366.014 314.847C370.942 315.007 373.854 310.691 375.07 308.26L366.142 309.444Z" fill="#ED975D"/>
<path d="M364.35 311.809C364.35 311.809 375.999 312.737 376.479 305.479C376.959 298.22 378.751 293.456 371.326 292.529C363.902 291.634 362.27 294.32 361.534 296.686C360.798 299.084 361.31 311.362 364.35 311.809Z" fill="#FFB27D"/>
<path d="M362.782 292.913C362.782 292.913 368.67 300.715 373.502 302.282C378.334 303.848 380.543 302.665 380.543 302.665C380.543 302.665 378.142 299.628 377.246 295.343C376.99 294.096 376.062 293.073 374.814 292.689C371.39 291.666 364.734 290.067 362.782 292.913Z" fill="#233862"/>
<path d="M367.422 293.36C367.422 293.36 364.478 295.183 363.358 296.75C362.27 298.252 361.182 302.249 361.406 303.944C361.406 303.944 359.23 295.79 362.142 292.689C365.214 289.396 367.422 293.36 367.422 293.36Z" fill="#233862"/>
<path d="M353.086 328.148C357.854 332.624 364.254 335.374 371.326 335.374H373.086C373.054 335.342 373.054 335.342 373.022 335.31C379.679 334.895 385.695 332.017 390.143 327.573C390.719 326.997 391.295 326.389 391.807 325.75C390.879 323.736 389.983 322.105 389.247 321.05C385.951 316.446 376.415 315.87 376.415 315.87C376.383 315.87 376.383 315.902 376.351 315.902C372.734 318.044 370.334 318.716 368.766 318.716C366.462 318.716 365.918 317.245 365.822 316.893C365.822 316.829 365.822 316.829 365.822 316.829C365.822 316.829 358.942 317.98 355.87 320.858C355.23 321.465 354.75 322.137 354.558 322.872C354.302 323.8 353.758 325.718 353.086 328.148Z" fill="#FCE29E"/>
<path d="M110.425 273.281H328.772C335.268 273.281 340.548 268.006 340.548 261.515V201.532C340.548 195.041 335.268 189.766 328.772 189.766H110.425C103.929 189.766 98.6484 195.041 98.6484 201.532V261.515C98.6484 268.006 103.929 273.281 110.425 273.281Z" fill="white"/>
<path d="M225.984 225.705H195.646V229.638H225.984V225.705Z" fill="#CBE1FD"/>
<path d="M233.471 233.57H195.645V237.503H233.471V233.57Z" fill="#CBE1FD"/>
<path d="M264.321 233.57H236.479V237.503H264.321V233.57Z" fill="#CBE1FD"/>
<path d="M223.486 241.244H195.645V245.177H223.486V241.244Z" fill="#CBE1FD"/>
<path d="M249.472 225.705H229.247V229.637H249.472V225.705Z" fill="#CBE1FD"/>
<path d="M294.722 225.705H253.824V229.637H294.722V225.705Z" fill="#CBE1FD"/>
<path d="M238.88 206.233H195.934V211.796H238.88V206.233Z" fill="#CBE1FD"/>
<path d="M303.011 206.232H243.648V211.796H303.011V206.232Z" fill="#CBE1FD"/>
<path d="M238.937 307.781H219V310.371H238.937V307.781Z" fill="white"/>
<path d="M243.865 312.961H218.999V315.551H243.865V312.961Z" fill="white"/>
<path d="M264.154 312.961H245.849V315.551H264.154V312.961Z" fill="white"/>
<path d="M237.304 318.012H218.999V320.602H237.304V318.012Z" fill="white"/>
<path d="M254.394 307.781H241.081V310.371H254.394V307.781Z" fill="white"/>
<path d="M284.155 307.781H257.241V310.371H284.155V307.781Z" fill="white"/>
<path d="M247.451 294.991H219.193V298.636H247.451V294.991Z" fill="white"/>
<path d="M289.595 294.991H250.553V298.636H289.595V294.991Z" fill="white"/>
<path d="M267.29 370.226H247.353V372.816H267.29V370.226Z" fill="white"/>
<path d="M272.218 375.374H247.353V377.963H272.218V375.374Z" fill="white"/>
<path d="M292.507 375.374H274.202V377.963H292.507V375.374Z" fill="white"/>
<path d="M265.658 380.425H247.353V383.015H265.658V380.425Z" fill="white"/>
<path d="M282.747 370.225H269.434V372.815H282.747V370.225Z" fill="white"/>
<path d="M312.508 370.225H285.595V372.815H312.508V370.225Z" fill="white"/>
<path d="M275.804 357.404H247.547V361.049H275.804V357.404Z" fill="white"/>
<path d="M317.949 357.404H278.907V361.049H317.949V357.404Z" fill="white"/>
<path d="M391.616 34.1166L388.992 36.0031L386.368 34.1486C386.944 33.3172 387.904 32.7737 388.992 32.7737C390.048 32.7737 391.008 33.3172 391.616 34.1166Z" fill="#2B478B"/>
<path d="M388.992 28.2014C386.368 28.2014 384.032 29.5124 382.624 31.4947L384.288 32.6458C385.344 31.175 387.04 30.2158 388.992 30.2158C390.913 30.2158 392.609 31.175 393.665 32.6138L395.329 31.4308C393.889 29.4804 391.585 28.2014 388.992 28.2014Z" fill="#2B478B"/>
<path d="M388.992 19.5361C383.424 19.5361 378.528 22.2859 375.519 26.5064L377.183 27.6575C379.808 23.9485 384.128 21.5505 388.992 21.5505C393.824 21.5505 398.112 23.9485 400.737 27.5935L402.369 26.4105C399.393 22.2219 394.496 19.5361 388.992 19.5361Z" fill="#2B478B"/>
<path d="M388.992 24.2688C385.024 24.2688 381.536 26.2192 379.392 29.2248L381.056 30.3758C382.816 27.9138 385.728 26.2832 388.992 26.2832C392.224 26.2832 395.105 27.8818 396.897 30.3119L398.529 29.1288C396.385 26.1872 392.896 24.2688 388.992 24.2688Z" fill="#2B478B"/>
</svg>
